<svg width="68" height="68" viewBox="0 0 68 68" fill="none" xmlns="http://www.w3.org/2000/svg">
<path fill-rule="evenodd" clip-rule="evenodd" d="M34 66C51.6731 66 66 51.6731 66 34C66 16.3269 51.6731 2 34 2C16.3269 2 2 16.3269 2 34C2 51.6731 16.3269 66 34 66Z" stroke="#001A49" stroke-width="4"/>
<path d="M28 15.25C28 14.56 28.56 14 29.25 14H38.75C39.0815 14 39.3995 14.1317 39.6339 14.3661C39.8683 14.6005 40 14.9185 40 15.25C40 15.5815 39.8683 15.8995 39.6339 16.1339C39.3995 16.3683 39.0815 16.5 38.75 16.5H29.25C28.56 16.5 28 15.94 28 15.25ZM32.75 35.75C32.75 36.0815 32.8817 36.3995 33.1161 36.6339C33.3505 36.8683 33.6685 37 34 37C34.3315 37 34.6495 36.8683 34.8839 36.6339C35.1183 36.3995 35.25 36.0815 35.25 35.75V26.25C35.25 25.9185 35.1183 25.6005 34.8839 25.3661C34.6495 25.1317 34.3315 25 34 25C33.6685 25 33.3505 25.1317 33.1161 25.3661C32.8817 25.6005 32.75 25.9185 32.75 26.25V35.75ZM34 19C24.611 19 17 26.611 17 36C17 45.389 24.611 53 34 53C43.389 53 51 45.389 51 36C51 26.611 43.389 19 34 19ZM19.5 36C19.5 27.992 25.992 21.5 34 21.5C42.008 21.5 48.5 27.992 48.5 36C48.5 44.008 42.008 50.5 34 50.5C25.992 50.5 19.5 44.008 19.5 36ZM48.135 19.365C47.9005 19.1305 47.5826 18.9988 47.251 18.9988C46.9194 18.9988 46.6015 19.1305 46.367 19.365C46.1325 19.5995 46.0008 19.9174 46.0008 20.249C46.0008 20.5806 46.1325 20.8985 46.367 21.133L48.867 23.633C48.9831 23.7491 49.1209 23.8412 49.2726 23.904C49.4243 23.9668 49.5868 23.9992 49.751 23.9992C49.9152 23.9992 50.0777 23.9668 50.2294 23.904C50.3811 23.8412 50.5189 23.7491 50.635 23.633C50.7511 23.5169 50.8432 23.3791 50.906 23.2274C50.9688 23.0757 51.0012 22.9132 51.0012 22.749C51.0012 22.5848 50.9688 22.4223 50.906 22.2706C50.8432 22.1189 50.7511 21.9811 50.635 21.865L48.135 19.365Z" fill="#001A49" stroke="#001A49"/>
</svg>
