<svg width="57" height="57" viewBox="0 0 57 57" fill="none" xmlns="http://www.w3.org/2000/svg">
<g clip-path="url(#clip0_137_1889)" filter="url(#filter0_d_137_1889)">
<path d="M4 10.2018C4.26196 9.43523 4.4162 8.60712 4.80791 7.91313C5.97082 5.85331 7.79108 4.80003 10.1512 4.78403C13.6913 4.76065 17.2314 4.77419 20.7716 4.77911C21.5966 4.78034 22.1499 5.27991 22.156 5.98867C22.1634 6.70603 21.5795 7.21914 20.7422 7.22037C17.2657 7.22283 13.7892 7.21668 10.3127 7.22283C8.41782 7.22653 7.0407 8.25643 6.56941 10.0332C6.47271 10.3987 6.447 10.7924 6.447 11.1739C6.44088 21.6415 6.43966 32.108 6.44455 42.5756C6.44578 44.537 7.42017 45.909 9.16086 46.3938C9.5538 46.5033 9.97734 46.5464 10.3874 46.5464C21.6138 46.5538 32.8401 46.5538 44.0664 46.5513C46.4534 46.5501 48.0044 44.9788 48.0068 42.5658C48.0117 39.0872 48.0068 35.6087 48.0093 32.1301C48.0093 31.43 48.3741 30.9169 48.9396 30.7889C49.6851 30.6203 50.4024 31.1605 50.4232 31.9456C50.4489 32.9226 50.4343 33.9008 50.433 34.879C50.4294 37.6525 50.4661 40.426 50.4073 43.1983C50.3424 46.2646 47.7486 48.8424 44.6956 48.9741C44.4728 48.984 44.2488 48.9926 44.026 48.9926C32.8156 48.9938 21.6052 48.9889 10.3948 48.9975C7.93919 49 6.03203 48.0082 4.81036 45.8635C4.4162 45.1756 4.26318 44.3463 4 43.5809C4 32.4537 4 21.3278 4 10.2018Z" fill="#001A49"/>
<path d="M46.107 -6.86646e-05C47.4682 0.0270018 48.7034 0.472434 49.7353 1.42113C50.2996 1.93916 50.8382 2.48918 51.3695 3.04167C53.5031 5.26145 53.5459 8.47668 51.4796 10.7592C51.3511 10.9019 51.2152 11.0373 51.0806 11.1739C44.0444 18.2467 37.007 25.3182 29.9769 32.3971C29.5791 32.797 29.142 33.0517 28.5998 33.2006C25.4207 34.0718 22.2478 34.9639 19.0725 35.8523C18.6502 35.9704 18.2364 36.0566 17.8239 35.8166C17.3147 35.5201 17.1041 34.9848 17.2841 34.3216C18.032 31.5739 18.8619 28.8472 19.5168 26.0774C19.9098 24.42 20.7116 23.1501 21.9137 21.9565C28.6316 15.2898 35.2883 8.56035 41.9561 1.84195C43.103 0.687767 44.441 0.0245409 46.107 -6.86646e-05ZM40.9327 6.54852C35.0423 12.4696 29.1188 18.4238 23.2406 24.3326C25.0829 26.1845 26.9741 28.0855 28.7895 29.9116C34.6812 23.9893 40.6046 18.035 46.484 12.125C44.6418 10.2744 42.7493 8.37455 40.9327 6.54852ZM42.6269 4.54285C44.6038 6.53253 46.5 8.44223 48.4512 10.4061C48.7988 10.0369 49.1734 9.64563 49.5406 9.24942C49.6924 9.08576 49.843 8.91842 49.9752 8.74C50.7342 7.71994 50.7599 6.13755 49.9422 5.16301C49.3191 4.42103 48.6336 3.71228 47.8881 3.09704C46.9468 2.32061 45.8083 2.19264 44.7629 2.80049C43.9697 3.26192 43.316 3.96822 42.6269 4.54285ZM21.9137 26.6816C21.3408 28.766 20.7703 30.8381 20.1766 32.9939C22.3225 32.3947 24.3864 31.8188 26.4514 31.2429C24.925 29.7085 23.4401 28.216 21.9137 26.6816Z" fill="#001A49"/>
</g>
<defs>
<filter id="filter0_d_137_1889" x="0" y="0" width="57" height="57" filterUnits="userSpaceOnUse" color-interpolation-filters="sRGB">
<feFlood flood-opacity="0" result="BackgroundImageFix"/>
<feColorMatrix in="SourceAlpha" type="matrix" values="0 0 0 0 0 0 0 0 0 0 0 0 0 0 0 0 0 0 127 0" result="hardAlpha"/>
<feOffset dy="4"/>
<feGaussianBlur stdDeviation="2"/>
<feComposite in2="hardAlpha" operator="out"/>
<feColorMatrix type="matrix" values="0 0 0 0 0 0 0 0 0 0 0 0 0 0 0 0 0 0 0.25 0"/>
<feBlend mode="normal" in2="BackgroundImageFix" result="effect1_dropShadow_137_1889"/>
<feBlend mode="normal" in="SourceGraphic" in2="effect1_dropShadow_137_1889" result="shape"/>
</filter>
<clipPath id="clip0_137_1889">
<rect width="49" height="49" fill="white" transform="translate(4)"/>
</clipPath>
</defs>
</svg>
